<?xml version="1.0" encoding="utf-8"?>
<!-- Generator: Adobe Illustrator 23.1.1, SVG Export Plug-In . SVG Version: 6.00 Build 0)  -->
<svg version="1.1" xmlns="http://www.w3.org/2000/svg" xmlns:xlink="http://www.w3.org/1999/xlink" x="0px" y="0px"
	 viewBox="0 0 230 245" style="enable-background:new 0 0 230 245;" xml:space="preserve">
<style type="text/css">
	.st0{display:none;}
	.st1{display:inline;fill:#29ABE2;}
	.st2{display:inline;fill:url(#SVGID_1_);}
	.st3{display:inline;fill:#0000FF;}
	.st4{display:inline;opacity:0.8;fill:#29ABE2;}
	.st5{display:inline;fill:#FF9554;}
	.st6{display:inline;fill:#008CD4;}
	.st7{display:inline;fill:#FFAA3F;}
	.st8{display:inline;opacity:0.9;fill:#29ABE2;}
	.st9{display:inline;fill:#FFDB54;}
	.st10{display:inline;fill:#946400;}
	.st11{display:inline;opacity:0.3;fill:#FF7B15;}
	.st12{display:inline;fill:#006AE7;}
	.st13{display:inline;fill:#43C3EF;}
	.st14{display:inline;fill:#E16AFF;}
	.st15{display:inline;opacity:0.7;fill:#DA00FF;}
	.st16{display:inline;opacity:0.7;fill:#E16AFF;}
	.st17{display:inline;fill:#DA00FF;}
	.st18{display:inline;opacity:0.5;fill:#FF00FF;}
	.st19{display:inline;opacity:0.7;fill:#E594FF;}
	.st20{display:inline;fill:#8CC63F;}
	.st21{display:inline;opacity:0.9;fill:#8CC63F;}
	.st22{display:inline;fill:url(#SVGID_2_);}
	.st23{display:inline;fill:url(#SVGID_3_);}
	.st24{display:inline;opacity:0.5;fill:url(#SVGID_4_);}
	.st25{display:inline;fill:url(#SVGID_5_);}
	.st26{display:inline;fill:#FCDA15;}
	.st27{display:inline;opacity:0.8;fill:#F4E84D;}
	.st28{display:inline;opacity:0.8;fill:#F9C110;}
	.st29{display:inline;opacity:0.8;fill:#FFE736;}
	.st30{display:inline;opacity:0.8;fill:#FFF980;}
	.st31{fill:#34F7C9;}
	.st32{opacity:0.5;fill:#38D6AD;}
	.st33{opacity:0.5;fill:#92FCDB;}
	.st34{fill:#25B786;}
	.st35{opacity:0.5;fill:#1EC696;}
	.st36{fill:#1FCC92;}
	.st37{opacity:0.5;fill:#80F9E2;}
	.st38{opacity:0.5;fill:#9AFCE9;}
	.st39{display:inline;fill:#A67C52;}
	.st40{display:inline;fill:#754C24;}
	.st41{display:inline;fill:#C69C6D;}
	.st42{display:inline;opacity:0.8;fill:#A67C52;}
	.st43{display:inline;fill:#8C6239;}
	.st44{display:inline;fill:#FF6100;}
	.st45{display:inline;fill:#FFBD54;}
	.st46{display:inline;opacity:0.9;fill:#FFAA3F;}
	.st47{display:inline;opacity:0.8;fill:#FF6100;}
	.st48{display:inline;fill:#F7931E;}
	.st49{display:inline;fill:#9D4F83;}
	.st50{display:inline;fill:#B2629A;}
	.st51{display:inline;fill:#A54277;}
	.st52{display:inline;opacity:0.9;fill:#9D4F83;}
	.st53{display:inline;opacity:0.2;fill:url(#SVGID_6_);}
	.st54{display:inline;opacity:0.7;fill:#CE8FFF;}
	.st55{display:inline;fill:#D62230;}
	.st56{display:inline;opacity:0.8;fill:#F15A24;}
	.st57{display:inline;opacity:0.8;fill:#D62230;}
	.st58{display:inline;opacity:0.9;fill:#FF5468;}
	.st59{display:inline;fill:#C1272D;}
	.st60{display:inline;fill:#D40025;}
	.st61{opacity:0.5;fill:#C1EAE9;}
	.st62{display:none;opacity:0.5;fill:#E8D3C1;}
	.st63{display:none;opacity:0.5;fill:#E8C1C1;}
	.st64{display:none;opacity:0.5;fill:#F7EDBC;}
	.st65{display:none;opacity:0.5;fill:#C1DBE8;}
	.st66{display:none;opacity:0.5;fill:#E2C1E8;}
	.st67{display:none;opacity:0.5;fill:#CFE8C1;}
	.st68{display:none;opacity:0.5;fill:#DAC1E8;}
	.st69{display:none;fill:none;stroke:#D6A472;stroke-width:4;stroke-miterlimit:10;}
	.st70{fill:none;stroke:#62F4D8;stroke-width:4;stroke-miterlimit:10;}
	.st71{display:none;fill:none;stroke:#F46545;stroke-width:4;stroke-miterlimit:10;}
	.st72{display:none;fill:none;stroke:#F7E13C;stroke-width:4;stroke-miterlimit:10;}
	.st73{display:none;opacity:0.6;fill:none;stroke:#C577D8;stroke-width:4;stroke-miterlimit:10;}
	.st74{display:none;opacity:0.6;fill:none;stroke:#D964F2;stroke-width:4;stroke-miterlimit:10;}
	.st75{display:none;opacity:0.6;fill:none;stroke:#509DF9;stroke-width:4;stroke-miterlimit:10;}
	.st76{display:inline;fill:none;stroke:#D6A472;stroke-width:4;stroke-linecap:round;stroke-linejoin:round;stroke-miterlimit:10;}
	.st77{fill:none;stroke:#62F4D8;stroke-width:4;stroke-linecap:round;stroke-linejoin:round;stroke-miterlimit:10;}
	.st78{display:inline;fill:none;stroke:#F46545;stroke-width:4;stroke-linecap:round;stroke-linejoin:round;stroke-miterlimit:10;}
	.st79{display:none;opacity:0.6;}
	.st80{display:inline;fill:none;stroke:#509DF9;stroke-width:4;stroke-linecap:round;stroke-linejoin:round;stroke-miterlimit:10;}
	.st81{display:inline;fill:none;stroke:#C577D8;stroke-width:4;stroke-linecap:round;stroke-linejoin:round;stroke-miterlimit:10;}
	.st82{display:inline;fill:none;stroke:#F2B164;stroke-width:4;stroke-linecap:round;stroke-linejoin:round;stroke-miterlimit:10;}
	.st83{display:inline;fill:none;stroke:#D964F2;stroke-width:4;stroke-linecap:round;stroke-linejoin:round;stroke-miterlimit:10;}
	.st84{display:inline;fill:none;stroke:#F7E13C;stroke-width:4;stroke-linecap:round;stroke-linejoin:round;stroke-miterlimit:10;}
	.st85{display:inline;fill:none;stroke:#52C93D;stroke-width:4;stroke-linecap:round;stroke-linejoin:round;stroke-miterlimit:10;}
</style>
<g id="BACKGROUND">
</g>
<g id="OBJECTS">
	<g class="st0">
		<path class="st1" d="M399.9,277h-90.7L263,329.4l91.5,103.8L446,329.5L399.9,277z"/>
		<polygon class="st1" points="331.4,302.8 308.7,277.3 263,329.3 263.4,330 307.8,330 		"/>
		<linearGradient id="SVGID_1_" gradientUnits="userSpaceOnUse" x1="308.7441" y1="291.6296" x2="400.2549" y2="291.6296">
			<stop  offset="0" style="stop-color:#69AFE0"/>
			<stop  offset="9.616640e-02" style="stop-color:#60ADDF"/>
			<stop  offset="0.256" style="stop-color:#46A6DC"/>
			<stop  offset="0.4587" style="stop-color:#1D9BD7"/>
			<stop  offset="0.5843" style="stop-color:#0094D3"/>
			<stop  offset="1" style="stop-color:#007FC3"/>
		</linearGradient>
		<polygon class="st2" points="353.2,277 354,277 376.7,306.3 400.3,277 308.7,277 331.4,305.2 		"/>
		<polygon class="st1" points="308.7,381 354.5,433.2 331.1,381 		"/>
		<polygon class="st1" points="354.5,433.2 400.3,381 377,381 		"/>
		<polygon class="st1" points="400.3,277.2 376.7,303.9 399.3,330 445.6,330 446,329.3 		"/>
		<polygon class="st3" points="307.8,330 263.4,330 308.7,381.5 323.5,364.8 		"/>
		<polygon class="st3" points="384.7,363.7 400.3,381.6 445.6,330 399.3,330 		"/>
		<polygon class="st4" points="323.5,364.2 308.7,381 331.1,381 		"/>
		<polygon class="st4" points="377,381 400.3,381 384.7,363.2 		"/>
		<polygon class="st5" points="354.5,329.3 331.4,303 307.8,330 354.1,330 		"/>
		<polygon class="st6" points="354.5,329.3 331.4,303 307.8,330 354.1,330 		"/>
		<polygon class="st7" points="353.2,277 331.4,303.7 354.5,329.5 376.7,305 354,277 		"/>
		<polygon class="st8" points="353.2,277 331.4,303.7 354.5,329.5 376.7,305 354,277 		"/>
		<polygon class="st9" points="354.9,330 399.3,330 376.7,303.9 354.5,329.4 		"/>
		<polygon class="st6" points="354.9,330 399.3,330 376.7,303.9 354.5,329.4 		"/>
		<polygon class="st10" points="354.9,329.4 354.5,329 354.1,329.4 		"/>
		<polygon class="st11" points="354.9,329.4 354.5,329 354.1,329.4 		"/>
		<polygon class="st12" points="307.8,330 323.5,364.9 354.1,330 		"/>
		<polygon class="st12" points="384.7,364 399.3,330 354.9,330 		"/>
		<polygon class="st13" points="354.9,330 354.1,330 323.5,364.4 354.5,433.2 384.7,363.6 		"/>
	</g>
	<g class="st0">
		<polygon class="st14" points="640.7,277 640.7,277 552.3,277 552.3,277 507.8,327.1 596.6,434.1 685.3,327 		"/>
		<polygon class="st15" points="552.1,277 596.4,326.4 641,277 		"/>
		<polygon class="st16" points="552.1,277.6 507.7,328 596.6,328 		"/>
		<polygon class="st17" points="507.7,328 596.6,434.8 552.1,328 		"/>
		<polygon class="st18" points="596.6,328 685.4,328 641,277.6 		"/>
		<polygon class="st19" points="596.6,434.8 685.4,328 641,328 		"/>
		<polygon class="st19" points="550.3,328 639.2,328 594.7,277.6 		"/>
		<polygon class="st18" points="552,328 641.1,328 596.6,434.8 		"/>
		<polygon class="st19" points="596.4,328 596.6,434.8 552,328 		"/>
	</g>
	<g class="st0">
		<path class="st20" d="M156.9,508L156.9,508H68.3l0,0l-44.6,49.3L112.5,664l88.8-106.7L156.9,508z"/>
		<polygon class="st21" points="68,508 112.3,557.3 156.9,508 		"/>
		<polygon class="st20" points="68,507.6 23.6,557 112.4,557 		"/>
		<linearGradient id="SVGID_2_" gradientUnits="userSpaceOnUse" x1="23.583" y1="610.3823" x2="112.4458" y2="610.3823">
			<stop  offset="0" style="stop-color:#8FC274"/>
			<stop  offset="0.5" style="stop-color:#699A44"/>
			<stop  offset="1" style="stop-color:#4A7C32"/>
		</linearGradient>
		<polygon class="st22" points="23.6,557 112.4,663.8 68,557 		"/>
		<linearGradient id="SVGID_3_" gradientUnits="userSpaceOnUse" x1="112.4458" y1="532.2783" x2="201.3091" y2="532.2783">
			<stop  offset="1.123600e-02" style="stop-color:#9DBD6A"/>
			<stop  offset="0.5" style="stop-color:#7FAE41"/>
			<stop  offset="1" style="stop-color:#5B822E"/>
		</linearGradient>
		<polygon class="st23" points="112.4,557 201.3,557 156.9,507.6 		"/>
		<polygon class="st20" points="112.4,663.8 201.3,557 156.9,557 		"/>
		<linearGradient id="SVGID_4_" gradientUnits="userSpaceOnUse" x1="66.1982" y1="532.2783" x2="155.061" y2="532.2783">
			<stop  offset="0" style="stop-color:#BCC47A"/>
			<stop  offset="0.5225" style="stop-color:#9CAD3B"/>
			<stop  offset="1" style="stop-color:#788D2F"/>
		</linearGradient>
		<polygon class="st24" points="66.2,557 155.1,557 110.6,507.6 		"/>
		<linearGradient id="SVGID_5_" gradientUnits="userSpaceOnUse" x1="67.9424" y1="610.3823" x2="156.9492" y2="610.3823">
			<stop  offset="1.123600e-02" style="stop-color:#9DBD6A"/>
			<stop  offset="0.5" style="stop-color:#7FAE41"/>
			<stop  offset="1" style="stop-color:#5B822E"/>
		</linearGradient>
		<polygon class="st25" points="67.9,557 156.9,557 112.4,663.8 		"/>
		<polygon class="st20" points="112.3,557 112.4,663.8 67.9,557 		"/>
	</g>
	<g class="st0">
		<polygon class="st26" points="201.2,327 156.7,277 68.3,277 23.7,327 112.4,433.7 		"/>
		<polygon class="st27" points="68,277.6 23.6,328 112.4,328 		"/>
		<polygon class="st28" points="23.6,328 112.4,434.8 68,328 		"/>
		<polygon class="st28" points="112.4,328 201.3,328 156.9,277.6 		"/>
		<polygon class="st29" points="112.4,434.8 201.3,328 156.9,328 		"/>
		<polygon class="st28" points="68,328 156.9,328 112.4,277.6 		"/>
		<polygon class="st30" points="156.9,277 68,277 112.4,327.1 		"/>
		<polygon class="st29" points="67.9,328 112.4,328 156.9,328 112.4,434.8 		"/>
		<polygon class="st30" points="112,328 112,435.2 156.9,328 		"/>
	</g>
	<g>
		<polygon class="st31" points="113.6,190.8 201.1,84.8 156.5,35 68.1,35 68.1,35 68.1,35 68.1,35 68.1,35 23.7,84.8 		"/>
		<polygon class="st32" points="68,34.6 23.6,85 112.4,85 		"/>
		<polygon class="st33" points="156.9,35 68,35 112.4,84.8 		"/>
		<polygon class="st34" points="23.6,85 112.4,191.8 68,85 		"/>
		<polygon class="st34" points="112.4,191.8 201.3,85 156.9,85 		"/>
		<polygon class="st35" points="68,85 156.9,85 112.4,34.6 		"/>
		<polygon class="st33" points="112.4,85 201.3,85 156.9,34.6 		"/>
		<polygon class="st36" points="67.9,85 156.9,85 112.4,191.8 		"/>
		<polygon class="st37" points="67.9,34.6 67.9,85 112.5,85 		"/>
		<polygon class="st32" points="156.9,34.6 156.9,85 112.4,85 		"/>
		<polygon class="st38" points="113,85 113,192.7 156.9,85 		"/>
	</g>
	<g class="st0">
		<path class="st39" d="M442.6,85L398,35h-88.4l-43,50l87.2,106.5L442.6,85z"/>
		<polygon class="st39" points="309,35.1 266.7,85 309,85 		"/>
		<polygon class="st40" points="266.4,85 353.7,191.3 309.3,85 		"/>
		<polygon class="st41" points="309.3,85 398.2,85 353.7,34.6 		"/>
		<polygon class="st40" points="353.7,191.3 442.6,85 398.2,85 		"/>
		<polygon class="st42" points="398.2,35 309.3,35 353.7,84.4 		"/>
		<polygon class="st43" points="309.2,85 353.6,85 398.2,85 353.7,191.8 		"/>
		<polygon class="st39" points="398,35.1 442.4,85 398,85 		"/>
		<polygon class="st40" points="309.3,35.1 309.2,85.5 331.4,60 		"/>
		<polygon class="st40" points="398,35.1 398,85.5 375.8,60.1 		"/>
		<polygon class="st39" points="397.8,85 353,190.7 353,85 		"/>
	</g>
	<g class="st0">
		<path class="st44" d="M596.7,664.3l88.7-106.6L641.4,508h-89.5l-42.8,49.7L596.7,664.3z"/>
		<polygon class="st45" points="552,507.7 509.1,557 552,557 		"/>
		<polygon class="st46" points="509.1,557 596.4,663.7 552,557 		"/>
		<polygon class="st5" points="552,557 640.8,557 596.4,507.6 		"/>
		<polygon class="st46" points="596.4,663.7 685.3,557 640.8,557 		"/>
		<polygon class="st46" points="640.8,508 552,508 596.4,557.9 		"/>
		<polygon class="st47" points="551.9,557 640.9,557 596.4,663.3 		"/>
		<polygon class="st45" points="641,507.7 684.9,557 641,557 		"/>
		<polygon class="st47" points="552,507.7 551.9,557.6 574,532.5 		"/>
		<polygon class="st47" points="641,507.7 641,557.6 618.8,532.6 		"/>
		<polygon class="st48" points="640.9,507.6 665.3,557 685.3,557 		"/>
		<polygon class="st48" points="551.9,507.6 530.1,557 509.1,557 		"/>
		<polygon class="st44" points="596.2,557 596.4,663.3 640.9,557 		"/>
	</g>
	<g class="st0">
		<path class="st49" d="M443.2,557.4L398.8,508h-89.2l-42.5,49.4l87,106.5"/>
		<polygon class="st50" points="309,507.7 266.5,557 309,557 		"/>
		<polygon class="st51" points="267,557 354.3,663.6 309.9,557 		"/>
		<polygon class="st51" points="354.3,663.6 443.2,557 398.8,557 		"/>
		<polygon class="st52" points="309.8,557 398.8,557 354.3,663.7 		"/>
		<polygon class="st49" points="399,507.7 443.2,557 399,557 		"/>
		<polygon class="st50" points="354,507.7 309.6,557 354,557 		"/>
		<polygon class="st52" points="399,507.7 399,557 354.3,557 		"/>
		<polygon class="st50" points="354,557 354,664.2 398.8,557 		"/>
		<polygon class="st51" points="309,557.2 309,508 354.3,508 		"/>
		<linearGradient id="SVGID_6_" gradientUnits="userSpaceOnUse" x1="309" y1="532.3525" x2="353.9043" y2="532.3525">
			<stop  offset="0" style="stop-color:#7D3825"/>
			<stop  offset="0.5393" style="stop-color:#4F0000"/>
			<stop  offset="1" style="stop-color:#2D0000"/>
		</linearGradient>
		<polygon class="st53" points="309,507.7 353.9,557 309,557 		"/>
		<polygon class="st54" points="354,507.7 398.6,557 354,557 		"/>
	</g>
	<g class="st0">
		<polygon class="st55" points="685.3,84.8 640.6,35 552.2,35 507.7,84.7 597.6,190.4 		"/>
		<polygon class="st56" points="507.7,85 596.6,191.8 552.1,85 		"/>
		<polygon class="st56" points="596.6,85 685.4,85 641,34.6 		"/>
		<polygon class="st57" points="596.6,191.8 685.4,85 641,85 		"/>
		<polygon class="st58" points="552.1,85 641,85 596.6,34.6 		"/>
		<polygon class="st56" points="552.1,34.6 507.7,85 596.6,85 		"/>
		<polygon class="st57" points="552,85 641.1,85 596.6,191.8 		"/>
		<polygon class="st59" points="597,192.6 597,85 641.1,85 		"/>
		<polygon class="st59" points="596.6,192.2 685.4,85.5 662.9,85.6 596.6,192.6 531.5,85.6 507.7,85.5 		"/>
		<polygon class="st60" points="597,35.1 597,85.5 619.1,60.6 		"/>
		<polygon class="st60" points="641,34.6 663.2,85 641.1,85 		"/>
		<polygon class="st60" points="552.1,35.1 531.5,85.6 552,85.5 		"/>
		<polygon class="st57" points="641,35 596.6,84.6 552.1,35 		"/>
		<path class="st55" d="M597.8,190.6l-0.3,0.4l0.1-0.2L597.8,190.6z"/>
	</g>
	<g>
		<path class="st61" d="M152.7,221c0,3.6-19,6.6-42.4,6.6s-42.4-3-42.4-6.6c0-3.6,19-6.6,42.4-6.6S152.7,217.3,152.7,221z"/>
		<path class="st62" d="M394.7,221c0,3.6-19,6.6-42.4,6.6c-23.4,0-42.4-3-42.4-6.6c0-3.6,19-6.6,42.4-6.6
			C375.7,214.4,394.7,217.3,394.7,221z"/>
		<path class="st63" d="M638.7,221c0,3.6-19,6.6-42.4,6.6c-23.4,0-42.4-3-42.4-6.6c0-3.6,19-6.6,42.4-6.6
			C619.7,214.4,638.7,217.3,638.7,221z"/>
		<path class="st64" d="M152.7,466.7c0,3.7-19,6.6-42.4,6.6s-42.4-3-42.4-6.6c0-3.6,19-6.6,42.4-6.6S152.7,463.1,152.7,466.7z"/>
		<path class="st65" d="M394.7,466.7c0,3.7-19,6.6-42.4,6.6c-23.4,0-42.4-3-42.4-6.6c0-3.6,19-6.6,42.4-6.6
			C375.7,460.1,394.7,463.1,394.7,466.7z"/>
		<path class="st66" d="M638.7,466.7c0,3.7-19,6.6-42.4,6.6c-23.4,0-42.4-3-42.4-6.6c0-3.6,19-6.6,42.4-6.6
			C619.7,460.1,638.7,463.1,638.7,466.7z"/>
		<path class="st67" d="M152.7,692.8c0,3.6-19,6.6-42.4,6.6s-42.4-3-42.4-6.6s19-6.6,42.4-6.6S152.7,689.2,152.7,692.8z"/>
		<path class="st68" d="M394.7,692.8c0,3.6-19,6.6-42.4,6.6c-23.4,0-42.4-3-42.4-6.6s19-6.6,42.4-6.6
			C375.7,686.2,394.7,689.2,394.7,692.8z"/>
		<path class="st62" d="M638.7,692.8c0,3.6-19,6.6-42.4,6.6c-23.4,0-42.4-3-42.4-6.6s19-6.6,42.4-6.6
			C619.7,686.2,638.7,689.2,638.7,692.8z"/>
	</g>
	<g>
		<circle class="st69" cx="255.8" cy="40.8" r="6.8"/>
		<circle class="st70" cx="16.8" cy="18.8" r="6.8"/>
		<circle class="st70" cx="212.8" cy="178.8" r="6.8"/>
		<circle class="st69" cx="458.8" cy="151.8" r="6.8"/>
		<circle class="st71" cx="504.8" cy="43.8" r="6.8"/>
		<circle class="st72" cx="185.8" cy="434.8" r="6.8"/>
		<circle class="st73" cx="451.8" cy="501.8" r="6.8"/>
		<circle class="st74" cx="682.8" cy="280.8" r="6.8"/>
		<circle class="st75" cx="253.8" cy="289.8" r="6.8"/>
		<g class="st0">
			<line class="st76" x1="443" y1="17" x2="443" y2="31"/>
			<line class="st76" x1="450" y1="24" x2="436" y2="24"/>
		</g>
		<g>
			<line class="st77" x1="44" y1="150" x2="44" y2="164"/>
			<line class="st77" x1="51" y1="157" x2="37" y2="157"/>
		</g>
		<g class="st0">
			<line class="st78" x1="680" y1="143" x2="680" y2="157"/>
			<line class="st78" x1="687" y1="150" x2="673" y2="150"/>
		</g>
		<g class="st79">
			<line class="st80" x1="457" y1="255" x2="457" y2="269"/>
			<line class="st80" x1="464" y1="262" x2="450" y2="262"/>
		</g>
		<g class="st79">
			<line class="st80" x1="297" y1="396" x2="297" y2="410"/>
			<line class="st80" x1="304" y1="403" x2="290" y2="403"/>
		</g>
		<g class="st79">
			<line class="st81" x1="281" y1="611" x2="281" y2="625"/>
			<line class="st81" x1="288" y1="618" x2="274" y2="618"/>
		</g>
		<g class="st79">
			<line class="st81" x1="253" y1="486" x2="253" y2="500"/>
			<line class="st81" x1="260" y1="493" x2="246" y2="493"/>
		</g>
		<g class="st0">
			<line class="st82" x1="692" y1="503" x2="692" y2="517"/>
			<line class="st82" x1="699" y1="510" x2="685" y2="510"/>
		</g>
		<g class="st0">
			<line class="st82" x1="535" y1="635" x2="535" y2="649"/>
			<line class="st82" x1="542" y1="642" x2="528" y2="642"/>
		</g>
		<g class="st79">
			<line class="st83" x1="513" y1="403" x2="513" y2="417"/>
			<line class="st83" x1="520" y1="410" x2="506" y2="410"/>
		</g>
		<g class="st0">
			<line class="st84" x1="28" y1="416" x2="28" y2="430"/>
			<line class="st84" x1="35" y1="423" x2="21" y2="423"/>
		</g>
		<g class="st0">
			<line class="st84" x1="39" y1="264" x2="39" y2="278"/>
			<line class="st84" x1="46" y1="271" x2="32" y2="271"/>
		</g>
		<g class="st0">
			<line class="st85" x1="44" y1="642" x2="44" y2="656"/>
			<line class="st85" x1="51" y1="649" x2="37" y2="649"/>
		</g>
	</g>
</g>
<g id="DESIGNED_BY_FREEPIK">
</g>
</svg>
