<?xml version="1.0" encoding="utf-8"?>
<!-- Generator: Adobe Illustrator 23.1.1, SVG Export Plug-In . SVG Version: 6.00 Build 0)  -->
<svg version="1.1" id="Capa_1" xmlns="http://www.w3.org/2000/svg" xmlns:xlink="http://www.w3.org/1999/xlink" x="0px" y="0px"
	 viewBox="0 0 496 496" style="enable-background:new 0 0 496 496;" xml:space="preserve">
<style type="text/css">
	.st0{fill:#009680;}
</style>
<g>
	<g>
		<path class="st0" d="M446.2,368.8c-37.8,61.8-103.1,103-174.9,110.1l1.6,15.9c76.7-7.6,146.6-51.6,187-117.7L446.2,368.8z"/>
	</g>
</g>
<g>
	<g>
		<path class="st0" d="M255.8,479.9c-5.1,0.2-10.3,0.2-15.5,0l-0.5,16c2.8,0.1,5.5,0.1,8.3,0.1c2.8,0,5.5,0,8.2-0.1L255.8,479.9z"/>
	</g>
</g>
<g>
	<g>
		<path class="st0" d="M17.2,271.2l-15.9,1.6c11.6,117,105,210.4,222,222l1.6-15.9C115.4,468,28.1,380.7,17.2,271.2z"/>
	</g>
</g>
<g>
	<g>
		<path class="st0" d="M16.2,240.3l-16-0.5C0.1,242.5,0,245.2,0,248c0,2.8,0,5.5,0.1,8.3l16-0.5c-0.1-2.6-0.1-5.2-0.1-7.7
			C16,245.4,16.1,242.8,16.2,240.3z"/>
	</g>
</g>
<g>
	<g>
		<path class="st0" d="M118.9,36.2C52.9,76.6,8.9,146.5,1.3,223.2l15.9,1.6C24.3,153,65.5,87.6,127.3,49.9L118.9,36.2z"/>
	</g>
</g>
<g>
	<g>
		<path class="st0" d="M205.7,86.5l-19.1,5.9C113.3,114.9,64,181.6,64,258.3h16c0-69.6,44.7-130.2,111.3-150.7l19.1-5.9L205.7,86.5z
			"/>
	</g>
</g>
<g>
	<g>
		<path class="st0" d="M394.2,285.6l-5.9,19.1c-20.5,66.6-81,111.3-150.7,111.3v16c76.7,0,143.4-49.3,166-122.6l5.9-19.1
			L394.2,285.6z"/>
	</g>
</g>
<g>
	<g>
		
			<rect x="354.1" y="136" transform="matrix(0.2941 -0.9558 0.9558 0.2941 177.3811 528.1151)" class="st0" width="184.2" height="16"/>
	</g>
</g>
<g>
	<g>
		
			<rect x="268.2" y="40.6" transform="matrix(0.9558 -0.2941 0.2941 0.9558 1.4486 106.8627)" class="st0" width="175.8" height="16"/>
	</g>
</g>
<g>
	<g>
		<path class="st0" d="M216,168c-61.8,0-112,50.2-112,112s50.2,112,112,112s112-50.2,112-112S277.8,168,216,168z M183.7,189.7
			c0.1,0.8,0.3,1.5,0.3,2.3c0,13.2-10.8,24-24,24c-4.4,0-8.5-1.3-12.2-3.5C157.9,202.4,170.1,194.6,183.7,189.7z M216,376
			c-52.9,0-96-43.1-96-96c0-20.5,6.5-39.4,17.5-55c6.6,4.5,14.4,7,22.5,7c22.1,0,40-17.9,40-40c0-2.2-0.2-4.3-0.6-6.5
			c5.4-0.9,10.9-1.5,16.6-1.5c36.1,0,67.6,20.1,84,49.6c-20.7,5.4-36,24.1-36,46.4s15.3,41.1,36,46.4C283.6,355.9,252.2,376,216,376
			z M280,280c0-15.8,11.5-28.9,26.6-31.5c3.4,9.9,5.4,20.4,5.4,31.5s-2,21.6-5.4,31.5C291.6,308.9,280,295.8,280,280z"/>
	</g>
</g>
<g>
	<g>
		<path class="st0" d="M192,264c-17.6,0-32,14.4-32,32s14.4,32,32,32v-16c-8.8,0-16-7.2-16-16s7.2-16,16-16s16,7.2,16,16h16
			C224,278.4,209.7,264,192,264z"/>
	</g>
</g>
<g>
	<g>
		<path class="st0" d="M344,0c-70.8,0-138.7,21.3-196.6,61.7l9.2,13.1C211.8,36.3,276.6,16,344,16h16V0H344z"/>
	</g>
</g>
<g>
	<g>
		<path class="st0" d="M480,159.8c-1.5,64.6-21.8,126.7-58.7,179.6l13.1,9.2c38.7-55.5,60-120.6,61.6-188.4L480,159.8z"/>
	</g>
</g>
<g>
	<g>
		<path class="st0" d="M220.4,129.1l8,13.9c35-20.2,75-30.9,115.6-30.9V96C300.6,96,257.9,107.4,220.4,129.1z"/>
	</g>
</g>
<g>
	<g>
		<path class="st0" d="M384,152c0,35.4-7.8,69.4-23.2,101.1l14.4,7C391.7,226.2,400,189.8,400,152H384z"/>
	</g>
</g>
<g>
	<g>
		<rect x="392" y="64" class="st0" width="16" height="16"/>
	</g>
</g>
<g>
	<g>
		<rect x="336" y="176" class="st0" width="16" height="16"/>
	</g>
</g>
<g>
	<g>
		<rect x="64.1" y="320" class="st0" width="16" height="16"/>
	</g>
</g>
<g>
	<g>
		<rect x="208.1" y="328" class="st0" width="16" height="16"/>
	</g>
</g>
<g>
	<g>
		<rect x="232.1" y="216" class="st0" width="16" height="16"/>
	</g>
</g>
<g>
	<g>
		<rect x="368" y="392" class="st0" width="16" height="16"/>
	</g>
</g>
<g>
	<g>
		<rect x="160.1" y="136" class="st0" width="16" height="16"/>
	</g>
</g>
</svg>
