<?xml version="1.0" encoding="utf-8"?>
<!-- Generator: Adobe Illustrator 23.1.1, SVG Export Plug-In . SVG Version: 6.00 Build 0)  -->
<svg version="1.1" id="Capa_1" xmlns="http://www.w3.org/2000/svg" xmlns:xlink="http://www.w3.org/1999/xlink" x="0px" y="0px"
	 viewBox="0 0 496 496" style="enable-background:new 0 0 496 496;" xml:space="preserve">
<style type="text/css">
	.st0{fill:#009680;}
</style>
<g>
	<g>
		<path class="st0" d="M448,352v128h-32v-96h-80v96H48V352H32v144h432V352H448z M400,480h-48v-80h48V480z"/>
	</g>
</g>
<g>
	<g>
		<rect x="80" y="320" class="st0" width="16" height="16"/>
	</g>
</g>
<g>
	<g>
		<path class="st0" d="M480,272H72.4c0.8-16.8,4.2-32.9,9.9-48h34.5l2.3-4.2C141.4,178,184.7,152,232,152h8v-31.6
			c36.5,1.8,71.3,15.9,98.7,40.4l10.7-11.9c-32.3-28.9-74-44.8-117.4-44.8c-18.3,0-36,2.8-52.6,8l-60-60l0.7-0.7
			c5.2-5.2,8-12,8-19.3s-2.8-14.2-8-19.3L115.3,8C105-2.3,87-2.3,76.7,8L8,76.7c-5.2,5.2-8,12-8,19.3s2.8,14.2,8,19.3l4.7,4.7
			c5.2,5.2,12,8,19.3,8s14.2-2.8,19.3-8l0.7-0.7l46.4,46.4C73.6,194.6,58,231.5,56.2,272H16c-8.8,0-16,7.2-16,16v32
			c0,8.8,7.2,16,16,16h48v-16H16v-32h464v32H112v16h368c8.8,0,16-7.2,16-16v-32C496,279.2,488.8,272,480,272z M40,108.7
			c-4.3,4.3-11.7,4.3-16,0l-4.7-4.7c-2.1-2.1-3.3-5-3.3-8s1.2-5.9,3.3-8L88,19.3c2.1-2.1,5-3.3,8-3.3s5.9,1.2,8,3.3l4.7,4.7
			c2.1,2.1,3.3,5,3.3,8s-1.2,5.9-3.3,8L40,108.7z M63.3,108L108,63.3l54.9,54.9c-20,8.6-38.2,20.8-53.6,35.8L63.3,108z M224,120.4
			v15.8c-48.5,2.7-92.3,29.6-116.7,71.8h-18C114.6,158.1,165.1,123.3,224,120.4z"/>
	</g>
</g>
<g>
	<g>
		<path class="st0" d="M384,208c-13.2,0-24,10.8-24,24s10.8,24,24,24s24-10.8,24-24S397.2,208,384,208z M384,240c-4.4,0-8-3.6-8-8
			s3.6-8,8-8s8,3.6,8,8S388.4,240,384,240z"/>
	</g>
</g>
<g>
	<g>
		<path class="st0" d="M448.8,84l6.2-37.1c9.8-3,17-12,17-22.8c0-13.2-10.8-24-24-24s-24,10.8-24,24c0,1.3,0.2,2.6,0.4,3.8
			l-29.7,23.8l-51.3-30.7l-4,7.2c-21.1,38-12.1,85.5,20.6,112.5V176h-32v80h16v-64h80v64h16v-80h-32v-16.2c1.7,0.1,3.4,0.2,5.1,0.2
			c30.1,0,58.6-16.6,73.9-44.1l3.8-6.8L448.8,84z M448,16c4.4,0,8,3.6,8,8s-3.6,8-8,8s-8-3.6-8-8S443.6,16,448,16z M432.3,42
			c2,1.7,4.1,3.2,6.6,4.2l-4.8,29l-24.7-14.8L432.3,42z M392,176h-16v-72h4.7l11.3,11.3V176z M408,143.6v-35L387.3,88H360v30.1
			c-16.6-20.6-20.9-49.5-10.3-74.8l119.2,71.3C454.8,134.5,431.7,145.5,408,143.6z"/>
	</g>
</g>
<g>
	<g>
		<path class="st0" d="M143.8,211.1c-4.2,5.4-7.9,11.2-11.1,17.2l14.2,7.4c2.7-5.2,5.9-10.2,9.5-14.8L143.8,211.1z"/>
	</g>
</g>
<g>
	<g>
		<path class="st0" d="M154.5,199.3l11.1,11.5c18-17.3,41.6-26.8,66.5-26.8v-16C203,168,175.4,179.1,154.5,199.3z"/>
	</g>
</g>
<g>
	<g>
		<rect x="416" y="352" class="st0" width="16" height="16"/>
	</g>
</g>
<g>
	<g>
		<rect x="368" y="352" class="st0" width="16" height="16"/>
	</g>
</g>
<g>
	<g>
		<rect x="320" y="352" class="st0" width="16" height="16"/>
	</g>
</g>
<g>
	<g>
		<path class="st0" d="M64,352v112h96V352H64z M104,448H80v-16h24V448z M104,416H80v-16h24V416z M104,384H80v-16h24V384z M144,448
			h-24v-16h24V448z M144,416h-24v-16h24V416z M144,384h-24v-16h24V384z"/>
	</g>
</g>
<g>
	<g>
		<path class="st0" d="M176,352v112h96V352H176z M216,448h-24v-16h24V448z M216,416h-24v-16h24V416z M216,384h-24v-16h24V384z
			 M256,448h-24v-16h24V448z M256,416h-24v-16h24V416z M256,384h-24v-16h24V384z"/>
	</g>
</g>
</svg>
