<?xml version="1.0" encoding="utf-8"?>
<!-- Generator: Adobe Illustrator 23.1.1, SVG Export Plug-In . SVG Version: 6.00 Build 0)  -->
<svg version="1.1" id="Capa_1" xmlns="http://www.w3.org/2000/svg" xmlns:xlink="http://www.w3.org/1999/xlink" x="0px" y="0px"
	 viewBox="0 0 496 496" style="enable-background:new 0 0 496 496;" xml:space="preserve">
<style type="text/css">
	.st0{fill:#009680;}
</style>
<g>
	<g>
		<path class="st0" d="M384.3,238.2L304,179.8v-112c0-15-5.8-29-16.4-39.6L267.3,7.9C257-2.5,239-2.5,228.7,7.9l-20.3,20.3
			C197.8,38.7,192,52.8,192,67.8v112l-80.3,58.4c-4.8,3.5-7.7,9.1-7.7,15.1c0,10.3,8.3,18.6,18.6,18.6H176v-16h-53.4
			c-1.4,0-2.6-1.2-2.6-2.6c0-0.8,0.4-1.6,1.1-2.1l70.9-51.6v72.3h112v-72.3l70.9,51.6c0.7,0.5,1.1,1.3,1.1,2.1
			c0,1.4-1.2,2.6-2.6,2.6H320v16h53.4c10.3,0,18.6-8.3,18.6-18.6C392,247.3,389.1,241.7,384.3,238.2z M256,255.9h-16v-52.7l8-8l8,8
			V255.9z M288,111.9h-16v16h16v128h-16v-59.3l-24-24l-24,24v59.3h-16v-128h16v-16h-16v-16h80V111.9z M288,79.9h-80V67.8
			c0-10.7,4.2-20.7,11.7-28.3L240,19.2c4.2-4.2,11.8-4.2,16,0l20.3,20.3C283.8,47,288,57.1,288,67.8V79.9z"/>
	</g>
</g>
<g>
	<g>
		<polygon class="st0" points="280,287.9 280,303.9 256,303.9 256,287.9 240,287.9 240,303.9 216,303.9 216,287.9 200,287.9 
			200,319.9 296,319.9 296,287.9 		"/>
	</g>
</g>
<g>
	<g>
		<path class="st0" d="M461.6,479.9c1.6-5.2,2.4-10.6,2.4-16c0-30.9-25.1-56-56-56c-9,0-17.4,2.2-25,5.9
			c-4.8-26.1-27.6-45.9-55-45.9c-6.7,0-13.4,1.2-19.7,3.6c-7.7-8.8-17.2-16-28.3-20.8v-14.7h-16v25.8l5.3,1.9
			c25.5,9,42.7,33.3,42.7,60.3h16c0-13.9-3.8-27-10.2-38.6c3.3-0.9,6.7-1.4,10.2-1.4c22.1,0,40,17.9,40,40c0,0.3,0,0.6,0,0.9
			c-9.9,10.1-16,23.9-16,39.1h16c0-22.1,17.9-40,40-40s40,17.9,40,40c0,5.5-1.2,11-3.4,16H51.3c-2.2-5-3.3-10.5-3.3-16
			c0-22.1,17.9-40,40-40c14.2,0,27.5,7.7,34.7,20l13.8-8c-2.4-4.1-5.2-7.8-8.5-11.1c0-0.3,0-0.6,0-0.9c0-22.1,17.9-40,40-40
			c3.5,0,6.9,0.5,10.2,1.4c-6.5,11.6-10.2,24.8-10.2,38.6c0,18.2,6.3,36.1,17.7,50.2l12.4-10.1c-9.3-11.5-14.2-25.4-14.2-40.2
			c0-27,17.2-51.2,42.7-60.3l5.3-1.9v-25.8h-16v14.7c-11,4.8-20.6,12-28.3,20.8c-6.3-2.4-13-3.6-19.7-3.6c-27.5,0-50.3,19.9-55.1,46
			c-7.7-3.8-16.1-6-24.9-6c-30.9,0-56,25.1-56,56c0,5.5,0.8,10.8,2.4,16H0v16h496v-16H461.6z"/>
	</g>
</g>
<g>
	<g>
		<rect x="200" y="407.9" class="st0" width="16" height="16"/>
	</g>
</g>
<g>
	<g>
		<rect x="296" y="439.9" class="st0" width="16" height="16"/>
	</g>
</g>
<g>
	<g>
		<rect x="400" y="447.9" class="st0" width="16" height="16"/>
	</g>
</g>
<g>
	<g>
		<rect x="136" y="447.9" class="st0" width="16" height="16"/>
	</g>
</g>
</svg>
